<?xml version="1.0" standalone="no"?><!DOCTYPE svg PUBLIC "-//W3C//DTD SVG 1.1//EN" "http://www.w3.org/Graphics/SVG/1.1/DTD/svg11.dtd"><svg t="1687159269577" class="icon" viewBox="0 0 1024 1024" version="1.1" xmlns="http://www.w3.org/2000/svg" p-id="1482" xmlns:xlink="http://www.w3.org/1999/xlink" width="200" height="200"><path d="M129.726 942.8c-62.272-6.06-102.358-59.352-82.688-119.41 23.574-71.928 69.398-184.792 158.528-351.726 95.98-179.732 175.21-296.786 228.95-367.554 40.62-53.48 113.024-53.48 153.642 0 53.74 70.768 132.97 187.82 228.95 367.554 89.13 166.934 134.954 279.8 158.528 351.726 19.67 60.058-20.416 113.348-82.688 119.408C808.874 950.982 678.356 960 511.336 960c-167.018 0-297.536-9.018-381.61-17.2z" fill="#94BFFF" p-id="1483"></path><path d="M463.956 283.646c-25.62 7.314-37.056 33.604-35.308 60.2 4.032 61.324 12.16 174.466 20.95 235.206 2.58 17.97 13.014 33.66 30.848 37.022 8.042 1.516 18.198 2.592 30.89 2.592 12.694 0 22.848-1.076 30.892-2.592 17.834-3.364 28.266-19.052 30.848-37.02 8.788-60.74 16.916-173.884 20.948-235.208 1.75-26.596-9.684-52.886-35.306-60.2-12.65-3.608-28.438-6.314-47.38-6.314-18.946 0-34.732 2.706-47.382 6.314zM511.336 853.334c47.126 0 85.334-38.206 85.334-85.334s-38.208-85.334-85.334-85.334c-47.124 0-85.332 38.206-85.332 85.334s38.208 85.334 85.332 85.334z" fill="#1677FF" p-id="1484"></path></svg>